<svg xmlns="http://www.w3.org/2000/svg" viewBox="0 0 512 512" width="512" height="512">
  <rect width="512" height="512" rx="100" fill="#1e293b"/>
  <g transform="translate(80,100)">
    <!-- Barcode lines -->
    <rect x="0" y="0" width="16" height="210" fill="#3b82f6"/>
    <rect x="26" y="0" width="8" height="210" fill="#3b82f6"/>
    <rect x="46" y="0" width="20" height="210" fill="#3b82f6"/>
    <rect x="78" y="0" width="10" height="210" fill="#3b82f6"/>
    <rect x="100" y="0" width="16" height="210" fill="#3b82f6"/>
    <rect x="126" y="0" width="8" height="210" fill="#3b82f6"/>
    <rect x="146" y="0" width="20" height="210" fill="#3b82f6"/>
    <rect x="178" y="0" width="10" height="210" fill="#3b82f6"/>
    <rect x="200" y="0" width="16" height="210" fill="#3b82f6"/>
    <rect x="226" y="0" width="8" height="210" fill="#3b82f6"/>
    <rect x="246" y="0" width="20" height="210" fill="#3b82f6"/>
    <rect x="278" y="0" width="10" height="210" fill="#3b82f6"/>
    <rect x="300" y="0" width="16" height="210" fill="#3b82f6"/>
    <rect x="326" y="0" width="8" height="210" fill="#3b82f6"/>
    <!-- Scan line -->
    <rect x="-16" y="96" width="368" height="6" rx="3" fill="#ef4444" opacity="0.8"/>
  </g>
  <!-- Magnifying glass -->
  <circle cx="376" cy="376" r="60" fill="none" stroke="#3b82f6" stroke-width="12"/>
  <line x1="420" y1="420" x2="460" y2="460" stroke="#3b82f6" stroke-width="12" stroke-linecap="round"/>
</svg>
